<svg viewBox="390.06792 457.056 302.40000000000003 166.32" xml:space="preserve" version="1.1" xmlns:xlink="http://www.w3.org/1999/xlink" xmlns="http://www.w3.org/2000/svg" style="max-height: 500px" width="302.40000000000003" height="166.32">
<desc>Created with Fabric.js 5.2.4</desc>
<defs>
</defs>
<g id="059e64d1-00c8-4e35-aa67-7e89ad20877d" transform="matrix(1 0 0 1 540 540)">
<rect height="1080" width="1080" ry="0" rx="0" y="-540" x="-540" style="stroke: none; stroke-width: 1; stroke-dasharray: none; stroke-linecap: butt; stroke-dashoffset: 0; stroke-linejoin: miter; stroke-miterlimit: 4; fill: rgb(255,255,255); fill-rule: nonzero; opacity: 1; visibility: hidden;"/>
</g>
<g id="61aae4ea-8571-4b93-be05-e691ca8de968" transform="matrix(1 0 0 1 540 540)">
</g>
<g transform="matrix(1 0 0 1 540 540)">
<g style="">
		<g transform="matrix(0.13 0 0 -0.13 -62.22 -10.47)">
<path stroke-linecap="round" d="M 1039 1251 C 1007 1218 1000 1171 1024 1147 C 1037 1135 1029 1123 965 1060 L 892 988 L 864 1017 C 836 1046 797 1070 755 1086 C 730 1095 590 1099 590 1090 C 590 1086 572 1077 550 1070 C 497 1053 443 999 414 936 C 382 868 381 761 410 712 C 422 693 426 681 421 685 C 415 688 382 671 346 648 C 297 616 282 601 286 588 C 289 578 286 570 280 570 C 274 570 264 557 259 541 C 245 502 214 495 193 526 C 180 546 179 556 188 575 C 200 600 207 604 248 600 C 278 598 276 618 244 632 C 223 642 213 641 185 625 C 166 615 153 603 156 599 C 159 594 157 590 152 590 C 139 590 156 502 173 486 C 181 477 200 475 230 479 C 274 485 275 486 285 529 C 293 568 302 577 361 617 L 428 662 L 470 620 C 566 524 705 507 811 577 L 851 603 L 905 550 C 949 506 960 500 966 513 C 970 525 957 543 921 576 C 875 617 871 624 883 639 C 891 648 908 675 921 700 C 950 756 954 876 928 926 L 911 957 L 985 1030 C 1038 1083 1056 1107 1047 1113 C 1038 1119 1038 1123 1047 1126 C 1055 1130 1056 1140 1049 1163 C 1031 1226 1080 1269 1129 1232 C 1148 1217 1154 1205 1152 1184 C 1148 1147 1122 1119 1097 1122 C 1086 1124 1075 1120 1073 1113 C 1070 1106 1082 1100 1102 1098 C 1140 1095 1180 1127 1180 1161 C 1180 1172 1185 1178 1190 1175 C 1196 1172 1200 1176 1200 1185 C 1200 1195 1195 1198 1188 1194 C 1180 1189 1179 1194 1182 1208 C 1186 1221 1183 1230 1177 1230 C 1171 1230 1170 1233 1173 1237 C 1184 1248 1127 1280 1097 1280 C 1079 1280 1058 1269 1039 1251 z M 773 1039 C 825 1012 891 960 885 950 C 882 945 887 929 895 914 C 919 868 924 821 910 764 C 898 714 880 691 880 725 C 880 732 872 743 863 749 C 846 758 847 760 868 780 C 891 802 900 873 880 885 C 875 888 870 899 870 909 C 870 918 861 936 850 948 C 839 960 830 974 830 980 C 830 986 826 989 821 985 C 815 982 808 986 803 993 C 791 1014 736 1040 688 1046 C 651 1051 615 1046 542 1024 C 533 1021 541 1028 560 1039 C 610 1068 716 1068 773 1039 z M 717 1008 C 769 995 845 928 836 904 C 833 896 836 890 841 890 C 847 890 850 881 847 870 C 844 859 846 850 852 850 C 857 850 860 835 858 818 C 856 791 851 786 835 788 C 824 790 753 792 678 794 C 525 797 523 796 556 731 C 596 652 731 648 761 726 C 769 748 774 750 807 744 C 828 740 847 735 850 733 C 852 731 846 712 835 692 C 799 626 703 591 610 611 C 553 623 480 682 477 718 C 476 730 472 740 468 740 C 455 740 467 884 483 915 C 506 959 542 990 591 1005 C 647 1022 661 1023 717 1008 z M 740 753 C 740 740 687 700 671 700 C 638 700 600 722 600 741 C 600 756 610 758 670 757 C 709 757 740 755 740 753 z" transform="translate(-673.7, -878.52)" style="stroke: none; stroke-width: 1; stroke-dasharray: none; stroke-linecap: butt; stroke-dashoffset: 0; stroke-linejoin: miter; stroke-miterlimit: 4; fill: rgb(255,255,255); fill-rule: nonzero; opacity: 1;"/>
</g>
		<g transform="matrix(0.13 0 0 -0.13 -64.18 -13.38)">
<path stroke-linecap="round" d="M 626 949 C 601 942 540 891 547 883 C 548 881 547 873 543 865 C 540 856 539 848 541 847 C 543 846 598 847 662 850 L 778 855 L 765 887 C 743 939 683 966 626 949 z M 689 911 C 712 897 692 881 655 884 C 609 888 601 897 631 909 C 662 921 672 922 689 911 z" transform="translate(-658.98, -900.35)" style="stroke: none; stroke-width: 1; stroke-dasharray: none; stroke-linecap: butt; stroke-dashoffset: 0; stroke-linejoin: miter; stroke-miterlimit: 4; fill: rgb(255,255,255); fill-rule: nonzero; opacity: 1;"/>
</g>
		<g transform="matrix(0.13 0 0 -0.13 47.26 -1.03)">
<path stroke-linecap="round" d="M 1433 995 C 1397 980 1372 946 1368 910 C 1365 889 1369 885 1390 885 C 1407 885 1416 891 1418 905 C 1424 935 1438 948 1471 955 C 1513 964 1553 945 1569 909 C 1588 866 1578 854 1518 841 C 1386 812 1383 810 1365 769 C 1346 727 1349 670 1372 643 C 1409 597 1498 596 1544 639 C 1573 666 1580 665 1580 635 C 1580 614 1585 610 1611 610 C 1637 610 1641 613 1634 628 C 1630 637 1623 713 1620 795 C 1617 878 1611 953 1606 962 C 1587 1004 1494 1022 1433 995 z M 1573 779 C 1571 766 1570 745 1569 733 C 1567 699 1518 658 1476 657 C 1415 655 1387 701 1417 754 C 1426 771 1541 811 1565 805 C 1571 804 1574 792 1573 779 z" transform="translate(-1494.79, -807.69)" style="stroke: none; stroke-width: 1; stroke-dasharray: none; stroke-linecap: butt; stroke-dashoffset: 0; stroke-linejoin: miter; stroke-miterlimit: 4; fill: rgb(255,255,255); fill-rule: nonzero; opacity: 1;"/>
</g>
		<g transform="matrix(0.13 0 0 -0.13 104.17 -1.2)">
<path stroke-linecap="round" d="M 1803 990 C 1785 979 1770 966 1770 960 C 1770 955 1765 950 1760 950 C 1754 950 1752 961 1756 975 C 1761 997 1759 1000 1736 1000 L 1710 1000 L 1710 804 L 1710 609 L 1733 612 C 1754 615 1755 619 1758 745 C 1761 914 1777 950 1845 950 C 1893 950 1898 932 1899 768 L 1899 615 L 1924 612 L 1949 609 L 1952 760 C 1955 906 1956 913 1979 931 C 2011 957 2055 956 2074 928 C 2087 910 2090 875 2090 757 C 2090 610 2090 609 2112 612 C 2133 615 2134 618 2133 780 L 2131 945 L 2101 979 C 2074 1009 2066 1012 2033 1007 C 2008 1003 1987 991 1971 972 L 1947 942 L 1915 976 C 1878 1015 1849 1019 1803 990 z" transform="translate(-1921.63, -808.98)" style="stroke: none; stroke-width: 1; stroke-dasharray: none; stroke-linecap: butt; stroke-dashoffset: 0; stroke-linejoin: miter; stroke-miterlimit: 4; fill: rgb(255,255,255); fill-rule: nonzero; opacity: 1;"/>
</g>
		<g transform="matrix(0.13 0 0 -0.13 4.5 -0.68)">
<path stroke-linecap="round" d="M 1042 993 C 1044 988 1067 947 1095 900 C 1122 853 1144 812 1143 808 C 1141 805 1116 761 1085 710 C 1055 660 1030 617 1030 615 C 1030 608 1066 609 1084 616 C 1093 619 1100 628 1100 636 C 1100 644 1105 650 1111 650 C 1116 650 1118 655 1115 660 C 1112 666 1114 670 1120 670 C 1126 670 1129 674 1126 679 C 1122 684 1123 690 1127 692 C 1132 693 1143 713 1153 735 C 1171 772 1173 773 1186 756 C 1193 746 1197 733 1194 729 C 1191 724 1193 720 1198 720 C 1204 720 1218 696 1230 668 C 1250 619 1254 615 1286 613 C 1306 612 1320 614 1318 618 C 1316 622 1289 668 1257 722 L 1199 818 L 1254 906 C 1304 987 1308 995 1289 998 C 1257 1003 1240 993 1229 960 C 1223 944 1214 930 1208 930 C 1203 930 1202 926 1205 920 C 1208 915 1206 910 1201 910 C 1195 910 1191 907 1191 903 C 1198 857 1168 860 1145 908 C 1135 928 1126 947 1125 950 C 1116 991 1107 1000 1073 1000 C 1054 1000 1040 997 1042 993 z" transform="translate(-1174.1, -805.11)" style="stroke: none; stroke-width: 1; stroke-dasharray: none; stroke-linecap: butt; stroke-dashoffset: 0; stroke-linejoin: miter; stroke-miterlimit: 4; fill: rgb(255,255,255); fill-rule: nonzero; opacity: 1;"/>
</g>
		<g transform="matrix(0.13 0 0 -0.13 -12.04 49.37)">
<path stroke-linecap="round" d="M 998 529 C 967 512 978 505 1032 508 C 1075 511 1089 507 1108 490 C 1134 465 1137 415 1115 383 C 1094 353 1037 343 1006 363 C 974 385 953 437 968 461 C 981 482 971 493 950 480 C 941 474 935 455 935 430 C 935 394 941 383 973 354 C 1001 328 1019 320 1047 320 C 1090 320 1150 356 1150 383 C 1150 393 1153 399 1158 396 C 1162 394 1165 409 1165 431 C 1165 452 1161 470 1156 470 C 1151 470 1149 473 1153 476 C 1160 484 1132 514 1103 529 C 1076 543 1021 543 998 529 z" transform="translate(-1050, -429.75)" style="stroke: none; stroke-width: 1; stroke-dasharray: none; stroke-linecap: butt; stroke-dashoffset: 0; stroke-linejoin: miter; stroke-miterlimit: 4; fill: rgb(255,255,255); fill-rule: nonzero; opacity: 1;"/>
</g>
</g>
</g>
</svg>